<?xml version="1.0" standalone="no"?>
<!DOCTYPE svg PUBLIC "-//W3C//DTD SVG 20010904//EN"
 "http://www.w3.org/TR/2001/REC-SVG-20010904/DTD/svg10.dtd">
<svg version="1.0" xmlns="http://www.w3.org/2000/svg"
 width="334.000000pt" height="306.000000pt" viewBox="0 0 334.000000 306.000000"
 preserveAspectRatio="xMidYMid meet">

<g transform="translate(0.000000,306.000000) scale(0.100000,-0.100000)"
fill="#000000" stroke="none">
<path d="M1521 2939 c-255 -21 -503 -115 -688 -261 -141 -111 -289 -302 -352
-451 -64 -155 -76 -221 -76 -437 0 -217 14 -297 76 -446 110 -264 405 -527
672 -599 l67 -18 0 -63 0 -64 -300 0 c-180 0 -320 4 -352 11 -111 23 -163 74
-184 179 -10 54 -11 55 -47 58 l-37 3 0 -310 0 -311 544 0 c300 0 547 3 549 8
2 4 -4 126 -14 272 -10 146 -18 277 -18 291 -1 22 -9 29 -47 44 -67 25 -187
109 -234 163 -89 100 -160 273 -196 477 -22 124 -26 435 -6 540 59 319 231
578 463 695 97 49 171 69 289 77 330 21 644 -190 780 -524 105 -259 116 -705
23 -983 -69 -209 -176 -340 -345 -424 -92 -46 -98 -50 -99 -80 0 -17 -10 -146
-23 -286 -13 -140 -21 -258 -19 -262 2 -5 249 -8 549 -8 l544 0 0 311 0 310
-37 -3 c-36 -3 -38 -5 -45 -46 -11 -65 -54 -136 -97 -160 -59 -34 -149 -42
-454 -42 l-288 0 7 58 c3 31 8 60 10 64 2 3 33 16 68 28 136 45 299 141 413
245 122 109 249 321 292 488 46 176 53 410 17 574 -71 329 -280 589 -602 752
-147 73 -305 115 -502 131 -131 11 -154 11 -301 -1z"/>
<path d="M1483 1962 c-34 -16 -40 -26 -23 -37 6 -3 10 -16 10 -29 0 -12 5 -27
12 -34 9 -9 9 -12 -1 -12 -10 0 -12 -20 -6 -92 4 -51 7 -100 7 -108 1 -8 6
-18 12 -22 8 -5 7 -8 -1 -8 -18 0 -16 -25 2 -44 12 -12 13 -17 3 -23 -7 -4
-19 -26 -27 -48 -7 -22 -23 -50 -35 -63 -26 -30 -97 -65 -160 -81 -47 -12 -50
-11 -77 15 -16 15 -29 36 -29 46 0 10 -4 18 -10 18 -29 0 0 -86 35 -102 51
-23 219 36 276 99 52 55 59 86 53 223 -3 69 -5 142 -4 162 0 20 -4 39 -10 43
-7 4 -7 11 -2 18 12 16 23 85 14 91 -4 2 -22 -3 -39 -12z"/>
<path d="M1633 1944 c-17 -8 -16 -24 1 -24 16 0 27 -48 32 -135 1 -33 3 -62 4
-65 1 -3 1 -42 0 -87 -1 -44 3 -84 8 -87 5 -3 7 -18 6 -33 -14 -124 -17 -136
-35 -140 -11 -3 -19 -10 -19 -16 0 -14 161 -2 220 17 70 22 178 76 210 106 17
15 36 30 43 33 7 2 21 22 32 43 11 22 23 41 26 44 16 14 31 103 24 150 -6 41
-15 61 -47 95 -48 52 -91 71 -201 88 -83 14 -282 20 -304 11z m317 -44 c55
-15 118 -48 142 -75 59 -66 50 -207 -19 -289 -61 -73 -198 -142 -303 -153
l-56 -5 4 37 c3 25 0 40 -9 46 -11 7 -11 9 -1 9 16 0 15 172 -1 208 -7 15 -7
26 -1 30 5 4 8 41 7 82 -3 115 -3 121 1 129 6 9 184 -4 236 -19z"/>
</g>
</svg>
